<?xml version="1.0" encoding="UTF-8" standalone="no"?>
<!-- Generator: Gravit.io -->
<svg xmlns="http://www.w3.org/2000/svg" xmlns:xlink="http://www.w3.org/1999/xlink" style="isolation:isolate" viewBox="0 0 40 40" width="40pt" height="40pt"><defs><clipPath id="_clipPath_TtLOhD7u3MCAZuUlHzxVeDGsOEHwR8Zf"><rect width="40" height="40"/></clipPath></defs><g clip-path="url(#_clipPath_TtLOhD7u3MCAZuUlHzxVeDGsOEHwR8Zf)"><g><path d=" M 17.606 0.18 C 17.044 0.477 16.981 0.68 16.981 2.188 C 16.981 3.625 17.044 3.852 17.528 4.102 C 17.653 4.164 17.763 4.25 17.763 4.289 C 17.763 4.445 17.348 5.531 17.106 6.008 C 16.958 6.297 16.192 7.68 15.395 9.078 C 13.645 12.148 13.458 12.516 13.2 13.359 C 12.864 14.5 12.833 15.047 12.864 19.57 L 12.888 23.789 L 13.27 25.781 C 13.598 27.516 13.645 27.906 13.645 28.789 C 13.645 29.664 13.614 29.914 13.427 30.586 C 13.309 31.016 13.161 31.539 13.106 31.75 C 12.708 33.188 12.794 35.352 13.294 36.805 C 13.567 37.578 14.192 38.766 14.544 39.148 C 14.731 39.359 15.075 39.617 15.325 39.742 C 15.731 39.945 15.856 39.961 16.809 39.992 C 18.005 40.023 18.325 39.938 18.802 39.492 C 19.161 39.156 19.309 39.117 20.169 39.148 C 20.856 39.18 20.864 39.18 21.231 39.508 C 21.716 39.93 21.966 40 23.083 40 C 24.825 40 25.388 39.625 26.247 37.883 C 26.895 36.594 27.138 35.523 27.138 34 C 27.138 32.727 27.075 32.305 26.7 31.016 C 26.466 30.203 26.411 29.875 26.38 29.063 C 26.341 28.141 26.364 27.953 26.739 25.781 L 27.145 23.477 L 27.114 18.867 C 27.083 13.023 27.231 13.656 24.989 9.727 C 23.075 6.359 22.833 5.922 22.606 5.352 C 22.231 4.398 22.231 4.352 22.63 3.969 C 23.059 3.563 23.098 3.367 23.059 1.867 C 23.036 0.836 23.028 0.797 22.809 0.516 C 22.434 0.023 22.317 0 20.005 0 C 18.013 0 17.934 0.008 17.606 0.18 Z  M 21.888 2.164 L 21.911 3.125 L 20.028 3.125 L 18.153 3.125 L 18.153 2.148 L 18.153 1.172 L 20.013 1.188 L 21.864 1.211 L 21.888 2.164 Z  M 21.278 5.094 C 21.419 5.539 21.63 6.102 21.755 6.344 C 21.88 6.594 21.981 6.828 21.981 6.875 C 21.981 6.922 21.302 6.953 19.989 6.953 C 18.895 6.953 17.997 6.938 17.997 6.922 C 17.997 6.906 18.138 6.594 18.309 6.234 C 18.481 5.867 18.7 5.281 18.794 4.93 L 18.973 4.297 L 19.997 4.297 L 21.02 4.297 L 21.278 5.094 Z  M 23.583 9.625 C 25.2 12.477 25.419 12.891 25.614 13.469 C 25.723 13.789 25.809 14.109 25.809 14.172 C 25.809 14.281 25.427 14.297 22.184 14.297 C 19.747 14.297 18.489 14.328 18.317 14.383 C 17.895 14.531 17.786 14.969 18.091 15.289 L 18.255 15.469 L 22.114 15.469 L 25.966 15.469 L 25.966 16.563 C 25.966 17.422 25.942 17.656 25.864 17.656 C 25.716 17.656 25.184 17.367 24.395 16.867 C 23.544 16.32 22.817 16.125 21.911 16.195 C 21.122 16.258 20.614 16.453 19.669 17.063 C 18.794 17.625 18.481 17.734 17.786 17.734 C 17.153 17.734 16.723 17.563 15.825 16.977 C 15.434 16.719 14.911 16.445 14.661 16.375 C 14.411 16.297 14.161 16.227 14.106 16.203 C 14.036 16.188 14.013 16.063 14.028 15.844 L 14.052 15.508 L 15.044 15.484 C 16.005 15.461 16.044 15.461 16.2 15.258 C 16.38 15.023 16.388 14.93 16.27 14.656 C 16.145 14.383 15.825 14.297 14.934 14.297 C 14.231 14.297 14.161 14.281 14.2 14.156 C 14.223 14.086 14.263 13.914 14.294 13.789 C 14.427 13.203 15.153 11.82 16.997 8.648 L 17.302 8.125 L 20.013 8.125 L 22.723 8.125 L 23.583 9.625 Z  M 23.263 17.57 C 23.442 17.648 23.864 17.898 24.216 18.133 C 24.739 18.484 25.239 18.711 25.872 18.875 C 26.013 18.914 26.005 20.938 25.864 20.938 C 25.716 20.938 25.184 20.648 24.395 20.148 C 23.544 19.602 22.817 19.406 21.911 19.477 C 21.13 19.539 20.622 19.734 19.669 20.336 C 18.794 20.898 18.458 21.016 17.77 21.016 C 17.161 21.016 16.716 20.844 15.825 20.258 C 15.434 20 14.911 19.727 14.661 19.656 C 14.411 19.578 14.161 19.508 14.114 19.484 C 13.981 19.453 13.966 17.422 14.091 17.422 C 14.27 17.422 14.708 17.656 15.395 18.109 C 16.395 18.766 16.731 18.867 17.841 18.867 C 18.888 18.859 19.302 18.734 20.169 18.148 C 20.817 17.711 21.192 17.516 21.567 17.422 C 21.981 17.32 22.88 17.398 23.263 17.57 Z  M 23.263 20.852 C 23.442 20.93 23.864 21.18 24.216 21.414 C 24.739 21.766 25.239 21.992 25.872 22.156 C 25.919 22.172 25.966 22.273 25.966 22.383 L 25.966 22.578 L 19.989 22.578 L 14.013 22.578 L 14.013 21.641 C 14.013 21.047 14.044 20.703 14.091 20.703 C 14.27 20.703 14.708 20.938 15.395 21.391 C 16.395 22.047 16.731 22.148 17.841 22.148 C 18.888 22.141 19.302 22.016 20.169 21.43 C 20.817 20.992 21.192 20.797 21.567 20.703 C 21.981 20.602 22.88 20.68 23.263 20.852 Z  M 25.864 24 C 25.841 24.102 25.669 25.023 25.497 26.055 C 25.192 27.82 25.177 27.992 25.208 29.063 C 25.247 30.102 25.278 30.289 25.575 31.328 C 25.88 32.375 25.911 32.547 25.942 33.633 C 25.989 34.945 25.888 35.68 25.536 36.609 C 25.263 37.328 24.833 38.102 24.536 38.422 C 24.223 38.75 23.911 38.828 22.973 38.828 L 22.216 38.828 L 21.864 38.508 C 21.427 38.102 20.981 37.969 20.059 37.969 C 19.013 37.969 18.638 38.07 18.153 38.484 L 17.747 38.828 L 16.958 38.828 C 15.888 38.82 15.606 38.703 15.184 38.031 C 14.528 36.992 14.138 35.766 14.052 34.445 C 13.981 33.422 14.091 32.547 14.442 31.344 C 14.981 29.469 14.989 28.703 14.481 25.836 C 14.309 24.852 14.169 24 14.169 23.938 C 14.169 23.844 14.989 23.828 20.036 23.828 L 25.903 23.828 L 25.864 24 Z " fill="rgb(0,0,0)"/></g></g></svg>