<?xml version="1.0" encoding="UTF-8" standalone="no"?>
<!-- Generator: Gravit.io -->
<svg xmlns="http://www.w3.org/2000/svg" xmlns:xlink="http://www.w3.org/1999/xlink" style="isolation:isolate" viewBox="0 0 40 40" width="40pt" height="40pt"><defs><clipPath id="_clipPath_8zW5OUrvcV0tVdrdxNDSscGmkQBfWSY5"><rect width="40" height="40"/></clipPath></defs><g clip-path="url(#_clipPath_8zW5OUrvcV0tVdrdxNDSscGmkQBfWSY5)"><g><path d=" M 12.39 0.098 C 12.257 0.152 12.085 0.293 12.007 0.41 C 11.851 0.653 11.819 1.137 11.952 1.372 C 11.999 1.458 12.546 1.966 13.179 2.497 L 14.32 3.466 L 11.874 3.505 C 9.702 3.536 9.397 3.56 9.217 3.685 C 8.654 4.06 8.67 4.974 9.24 5.271 C 9.358 5.334 9.522 5.381 9.608 5.381 C 9.694 5.381 9.78 5.412 9.803 5.451 C 9.827 5.49 9.553 6.357 9.186 7.389 L 8.521 9.249 L 8.521 21.76 L 8.521 34.272 L 9.381 36.71 C 10.452 39.742 10.413 39.648 10.725 39.844 C 10.983 40 11.093 40 19.681 40 C 28.879 40 28.621 40.008 28.91 39.664 C 28.957 39.601 29.403 38.414 29.895 37.023 L 30.794 34.506 L 30.794 21.885 L 30.794 9.272 L 30.09 7.397 C 29.707 6.373 29.387 5.513 29.387 5.498 C 29.387 5.474 29.465 5.459 29.567 5.459 C 29.848 5.459 30.247 5.162 30.379 4.857 C 30.528 4.497 30.426 4.099 30.122 3.81 L 29.918 3.622 L 23.565 3.583 L 17.212 3.544 L 15.281 1.864 C 14.226 0.942 13.257 0.145 13.148 0.09 C 12.874 -0.035 12.679 -0.027 12.39 0.098 Z  M 28.004 6.936 C 28.293 7.756 28.527 8.46 28.527 8.499 C 28.527 8.561 26.394 8.585 21.517 8.585 L 14.515 8.585 L 14.258 8.78 C 13.812 9.124 13.765 9.749 14.156 10.14 C 14.273 10.265 14.484 10.382 14.625 10.413 C 14.758 10.437 18.048 10.46 21.932 10.46 L 28.996 10.46 L 28.996 21.753 L 28.996 33.045 L 21.752 33.06 C 14.984 33.084 14.484 33.092 14.297 33.225 C 13.742 33.6 13.742 34.444 14.297 34.819 C 14.484 34.952 14.976 34.959 21.517 34.983 C 27.019 34.999 28.535 35.022 28.512 35.1 C 28.488 35.147 28.254 35.85 27.972 36.663 L 27.472 38.124 L 19.665 38.109 L 11.858 38.085 L 11.132 36.054 L 10.405 34.022 L 10.397 21.815 L 10.397 9.608 L 11.061 7.741 C 11.421 6.709 11.757 5.779 11.796 5.662 L 11.882 5.459 L 19.681 5.459 L 27.48 5.459 L 28.004 6.936 Z " fill="rgb(0,0,0)"/><path d=" M 15.79 8.678 C 15.697 8.725 15.54 8.889 15.454 9.03 C 15.134 9.546 15.392 10.194 15.986 10.39 C 16.283 10.484 16.838 10.429 17.025 10.28 C 17.58 9.851 17.533 9.007 16.939 8.694 C 16.681 8.569 16.048 8.553 15.79 8.678 Z " fill="rgb(0,0,0)"/><path d=" M 15.798 29.966 C 15.259 30.232 15.165 30.99 15.618 31.443 L 15.853 31.677 L 17.494 31.677 L 19.135 31.677 L 19.37 31.443 C 19.807 30.997 19.737 30.278 19.221 29.974 C 18.901 29.786 16.181 29.778 15.798 29.966 Z " fill="rgb(0,0,0)"/><path d=" M 15.892 33.225 C 15.353 33.475 15.15 34.069 15.454 34.553 C 15.65 34.873 15.908 34.999 16.369 34.999 C 17.002 34.999 17.416 34.639 17.416 34.092 C 17.416 33.779 17.244 33.436 17.009 33.287 C 16.767 33.139 16.158 33.107 15.892 33.225 Z " fill="rgb(0,0,0)"/></g></g></svg>