<?xml version="1.0" encoding="UTF-8" standalone="no"?>
<!-- Generator: Gravit.io -->
<svg xmlns="http://www.w3.org/2000/svg" xmlns:xlink="http://www.w3.org/1999/xlink" style="isolation:isolate" viewBox="0 0 40 40" width="40pt" height="40pt"><defs><clipPath id="_clipPath_QniAjKG4BVSuebgWkfY7yUSb6dybmzP5"><rect width="40" height="40"/></clipPath></defs><g clip-path="url(#_clipPath_QniAjKG4BVSuebgWkfY7yUSb6dybmzP5)"><g><path d=" M 16.766 0.245 C 16.192 0.608 16.023 1.031 16.023 2.053 C 16.023 2.94 16.132 3.345 16.487 3.717 L 16.682 3.928 L 16.445 6.251 C 16.31 7.527 16.166 8.693 16.124 8.836 C 15.989 9.284 15.778 9.63 14.646 11.278 C 13.514 12.917 13.21 13.491 13.057 14.319 C 12.998 14.623 12.981 16.676 13.007 20.131 C 13.041 25.926 13.024 25.647 13.556 27.548 C 13.919 28.824 14.012 29.77 13.978 31.763 C 13.953 33.419 13.944 33.521 13.725 34.002 C 12.965 35.742 13.024 35.48 13.024 36.874 C 13.024 38.082 13.032 38.158 13.252 38.564 C 13.539 39.113 14.105 39.637 14.637 39.839 C 15.026 39.992 15.338 40 19.993 40 C 24.648 40 24.96 39.992 25.349 39.839 C 25.881 39.637 26.447 39.113 26.734 38.564 C 26.954 38.158 26.962 38.082 26.962 36.874 C 26.962 35.48 27.03 35.759 26.27 34.019 C 26.042 33.512 26.033 33.445 26.008 31.73 C 25.974 29.677 26.059 28.917 26.456 27.447 C 26.988 25.537 27.005 25.25 27.005 19.717 C 27.005 16.786 26.971 14.539 26.92 14.285 C 26.768 13.483 26.464 12.9 25.34 11.278 C 24.217 9.639 23.997 9.284 23.862 8.836 C 23.82 8.693 23.676 7.527 23.541 6.251 L 23.305 3.928 L 23.499 3.717 C 23.854 3.345 23.963 2.94 23.963 2.053 C 23.963 1.031 23.795 0.608 23.22 0.245 L 22.831 0 L 19.993 0 L 17.155 0 L 16.766 0.245 Z  M 22.696 1.343 C 22.739 1.436 22.781 1.791 22.781 2.146 C 22.781 3.083 22.907 3.041 19.993 3.041 C 17.079 3.041 17.205 3.083 17.205 2.146 C 17.205 1.098 16.969 1.183 19.993 1.183 C 22.494 1.183 22.612 1.191 22.696 1.343 Z  M 22.35 6.226 C 22.663 9.487 22.654 9.461 24.318 11.886 C 25.501 13.609 25.721 14.049 25.797 14.826 L 25.847 15.375 L 19.993 15.375 L 14.139 15.375 L 14.189 14.826 C 14.265 14.049 14.477 13.609 15.668 11.886 C 17.332 9.445 17.324 9.487 17.636 6.226 L 17.83 4.224 L 19.993 4.224 L 22.156 4.224 L 22.35 6.226 Z  M 25.822 20.021 L 25.822 23.485 L 19.993 23.485 L 14.164 23.485 L 14.164 20.021 L 14.164 16.558 L 19.993 16.558 L 25.822 16.558 L 25.822 20.021 Z  M 25.771 24.98 C 25.67 25.681 25.543 26.272 25.307 27.117 C 24.918 28.511 24.808 29.491 24.808 31.442 C 24.808 32.405 24.85 33.394 24.901 33.639 C 24.952 33.884 25.171 34.467 25.383 34.931 C 25.763 35.751 25.771 35.801 25.805 36.748 C 25.83 37.643 25.822 37.744 25.636 38.091 C 25.493 38.353 25.315 38.53 25.062 38.665 L 24.698 38.86 L 19.993 38.86 L 15.288 38.86 L 14.924 38.665 C 14.671 38.53 14.494 38.353 14.35 38.091 C 14.164 37.753 14.156 37.643 14.181 36.748 C 14.206 35.793 14.215 35.759 14.603 34.931 C 15.161 33.74 15.203 33.402 15.152 30.986 C 15.102 28.824 15.051 28.46 14.603 26.855 C 14.46 26.365 14.325 25.732 14.291 25.461 C 14.257 25.191 14.215 24.895 14.198 24.811 C 14.156 24.676 14.468 24.667 19.985 24.667 L 25.814 24.667 L 25.771 24.98 Z " fill="rgb(0,0,0)"/></g></g></svg>